<?xml version="1.0" encoding="utf-8"?>
<!-- Generator: Adobe Illustrator 23.1.0, SVG Export Plug-In . SVG Version: 6.00 Build 0)  -->
<svg version="1.1" id="Layer_1" xmlns="http://www.w3.org/2000/svg" xmlns:xlink="http://www.w3.org/1999/xlink" x="0px" y="0px"
	 viewBox="0 0 24 24" style="enable-background:new 0 0 24 24;" xml:space="preserve">
<style type="text/css">
	.st0{fill-rule:evenodd;clip-rule:evenodd;fill:#38C9CF;}
	.st1{fill-rule:evenodd;clip-rule:evenodd;fill:#FFFFFF;}
</style>
<g>
	<g>
		<g>
			<g>
				<g transform="translate(-445 -876) translate(423 276) translate(2 316) translate(20 284)">
					<circle class="st0" cx="12" cy="12" r="12"/>
					<path class="st1" d="M11.9,7.5c2.5,0,4.4,2,4.4,4.4c0,0.9-0.3,1.8-0.7,2.5l0.8,0.8l-1.3,1.3l-0.8-0.8c-0.7,0.5-1.5,0.7-2.5,0.7
						c-2.5,0-4.4-2-4.4-4.4C7.5,9.5,9.5,7.5,11.9,7.5z M11.9,9.3c-1.5,0-2.7,1.2-2.7,2.7s1.2,2.7,2.7,2.7c0.4,0,0.8-0.1,1.1-0.3
						L12.7,14l1.3-1.3l0.4,0.4c0.2-0.3,0.3-0.7,0.3-1.1C14.6,10.5,13.4,9.3,11.9,9.3z"/>
				</g>
			</g>
		</g>
	</g>
</g>
</svg>
