<?xml version="1.0" encoding="utf-8"?>
<!-- Generator: Adobe Illustrator 23.1.0, SVG Export Plug-In . SVG Version: 6.00 Build 0)  -->
<svg version="1.1" id="Layer_1" xmlns="http://www.w3.org/2000/svg" xmlns:xlink="http://www.w3.org/1999/xlink" x="0px" y="0px"
	 viewBox="0 0 36 36" style="enable-background:new 0 0 36 36;" xml:space="preserve">
<style type="text/css">
	.st0{fill:#7749EB;}
</style>
<path class="st0" d="M27.3,25.3L24,22.1c1.1-1.5,1.7-3.2,1.7-5.1c0-2.3-0.9-4.5-2.5-6.1c-1.6-1.6-3.8-2.5-6.1-2.5
	c-2.3,0-4.5,0.9-6.1,2.5c-3.4,3.4-3.4,8.9,0,12.3c1.6,1.6,3.8,2.5,6.1,2.5c1.9,0,3.6-0.6,5.1-1.7l3.2,3.2c0.3,0.3,0.6,0.4,1,0.4
	c0.3,0,0.7-0.1,1-0.4C27.8,26.7,27.8,25.9,27.3,25.3z M17,23c-1.6,0-3.1-0.6-4.2-1.7c-2.3-2.3-2.3-6.1,0-8.4
	c1.1-1.1,2.6-1.7,4.2-1.7s3.1,0.6,4.2,1.7S23,15.4,23,17c0,1.6-0.6,3.1-1.7,4.2S18.6,23,17,23z"/>
</svg>
