<?xml version="1.0" encoding="utf-8"?>
<!-- Generator: Adobe Illustrator 23.1.0, SVG Export Plug-In . SVG Version: 6.00 Build 0)  -->
<svg version="1.1" id="Layer_1" xmlns="http://www.w3.org/2000/svg" xmlns:xlink="http://www.w3.org/1999/xlink" x="0px" y="0px"
	 viewBox="0 0 36 36" style="enable-background:new 0 0 36 36;" xml:space="preserve">
<style type="text/css">
	.st0{fill:#878787;}
</style>
<path class="st0" d="M28.9,4.5C26,1.7,22.1,0,18,0S10.2,1.6,7.2,4.5c-2.8,2.8-4.5,6.7-4.5,10.8s1.5,7.9,4.5,10.8l9.4,9.4
	c0.4,0.4,0.8,0.6,1.3,0.6c0.6,0,1-0.1,1.3-0.6l9.4-9.4c2.8-2.8,4.5-6.7,4.5-10.8C33.2,11.1,31.7,7.3,28.9,4.5z M14.5,11.8
	c1-1,2.1-1.4,3.5-1.4c1.3,0,2.5,0.6,3.5,1.4c1,1,1.4,2.1,1.4,3.5c0,1.3-0.6,2.5-1.4,3.5c-1,1-2.1,1.4-3.5,1.4
	c-1.3,0-2.5-0.6-3.5-1.4c-1-1-1.4-2.1-1.4-3.5C13.1,13.9,13.7,12.7,14.5,11.8z"/>
</svg>
