<?xml version="1.0" encoding="utf-8"?>
<!-- Generator: Adobe Illustrator 23.1.0, SVG Export Plug-In . SVG Version: 6.00 Build 0)  -->
<svg version="1.1" id="Layer_1" xmlns="http://www.w3.org/2000/svg" xmlns:xlink="http://www.w3.org/1999/xlink" x="0px" y="0px"
	 viewBox="0 0 36 36" style="enable-background:new 0 0 36 36;" xml:space="preserve">
<style type="text/css">
	.st0{fill:#878787;}
</style>
<g>
	<path class="st0" d="M10.3,6.2L9.4,1.6C9.2,0.7,8.5,0,7.7,0H2.2C1.3,0,0.5,0.8,0.5,1.7s0.8,1.7,1.7,1.7h4.2l4.8,24
		c0.2,0.8,0.9,1.4,1.7,1.4h17.1c0.9,0,1.7-0.8,1.7-1.7c0-0.9-0.8-1.7-1.7-1.7H14l-0.6-3.3H31c0.9,0,1.5-0.6,1.7-1.4l2.9-14.7H10.3
		V6.2z"/>
	<path class="st0" d="M16.4,30.8c-1.5,0-2.6,1.2-2.6,2.6c0,1.5,1.2,2.6,2.6,2.6c1.5,0,2.6-1.2,2.6-2.6C19,32,17.8,30.8,16.4,30.8z"
		/>
	<path class="st0" d="M26.6,30.8c-1.5,0-2.6,1.2-2.6,2.6c0,1.5,1.2,2.6,2.6,2.6c1.5,0,2.6-1.2,2.6-2.6C29.2,32,28,30.8,26.6,30.8z"
		/>
</g>
</svg>
